<svg xmlns="http://www.w3.org/2000/svg" xmlns:xlink="http://www.w3.org/1999/xlink" fill="none" version="1.1" width="64" height="64" viewBox="0 0 64 64"><defs><clipPath id="master_svg0_0_262"><rect x="0" y="0" width="64" height="64" rx="0"/></clipPath></defs><g clip-path="url(#master_svg0_0_262)"><g></g><g><path d="M38.557,21.834C38.557,21.834,23.4,36.991,23.4,36.991C23.4,36.991,15.143,28.757,15.143,28.757C15.143,28.757,11.9,32,11.9,32C11.9,32,23.4,43.5,23.4,43.5C23.4,43.5,41.8,25.1,41.8,25.1C41.8,25.1,38.557,21.834,38.557,21.834C38.557,21.834,38.557,21.834,38.557,21.834ZM28,9C15.304,9,5,19.304000000000002,5,32C5,44.696,15.304,55,28,55C40.696,55,51,44.696,51,32C51,19.304000000000002,40.696,9,28,9C28,9,28,9,28,9ZM28,50.4C17.834,50.4,9.6,42.166,9.6,32C9.6,21.834,17.834,13.6,28,13.6C38.166,13.6,46.4,21.834,46.4,32C46.4,42.166,38.166,50.4,28,50.4C28,50.4,28,50.4,28,50.4Z" fill="#D98326" fill-opacity="1"/></g></g></svg>