<svg xmlns="http://www.w3.org/2000/svg" xmlns:xlink="http://www.w3.org/1999/xlink" fill="none" version="1.1" width="32" height="32" viewBox="0 0 32 32"><defs><clipPath id="master_svg0_0_269"><rect x="0" y="0" width="32" height="32" rx="0"/></clipPath></defs><g style="opacity:0.30000001192092896;" clip-path="url(#master_svg0_0_269)"><g></g><g><path d="M7.999996507720947,25.3333C7.999996507720947,26.8,9.199996507720947,28,10.666666507720947,28C10.666666507720947,28,21.333366507720946,28,21.333366507720946,28C22.799966507720946,28,23.99996650772095,26.8,23.99996650772095,25.3333C23.99996650772095,25.3333,23.99996650772095,9.33333,23.99996650772095,9.33333C23.99996650772095,9.33333,7.999996507720947,9.33333,7.999996507720947,9.33333C7.999996507720947,9.33333,7.999996507720947,25.3333,7.999996507720947,25.3333C7.999996507720947,25.3333,7.999996507720947,25.3333,7.999996507720947,25.3333ZM10.666666507720947,12C10.666666507720947,12,21.333366507720946,12,21.333366507720946,12C21.333366507720946,12,21.333366507720946,25.3333,21.333366507720946,25.3333C21.333366507720946,25.3333,10.666666507720947,25.3333,10.666666507720947,25.3333C10.666666507720947,25.3333,10.666666507720947,12,10.666666507720947,12C10.666666507720947,12,10.666666507720947,12,10.666666507720947,12ZM20.666666507720947,5.33333C20.666666507720947,5.33333,19.333366507720946,4,19.333366507720946,4C19.333366507720946,4,12.666666507720947,4,12.666666507720947,4C12.666666507720947,4,11.333336507720947,5.33333,11.333336507720947,5.33333C11.333336507720947,5.33333,6.666666507720947,5.33333,6.666666507720947,5.33333C6.666666507720947,5.33333,6.666666507720947,8,6.666666507720947,8C6.666666507720947,8,25.333366507720946,8,25.333366507720946,8C25.333366507720946,8,25.333366507720946,5.33333,25.333366507720946,5.33333C25.333366507720946,5.33333,20.666666507720947,5.33333,20.666666507720947,5.33333C20.666666507720947,5.33333,20.666666507720947,5.33333,20.666666507720947,5.33333Z" fill="#B30B04" fill-opacity="1"/></g></g></svg>