<svg xmlns="http://www.w3.org/2000/svg" xmlns:xlink="http://www.w3.org/1999/xlink" fill="none" version="1.1" width="27.818199157714844" height="34" viewBox="0 0 27.818199157714844 34"><g><path d="M15.4545,11.1273C15.4545,11.1273,13.9091,9.58182,13.9091,9.58182C13.9091,9.58182,7.72727,15.7636,7.72727,15.7636C7.72727,15.7636,1.54545,9.58182,1.54545,9.58182C1.54545,9.58182,0,11.1273,0,11.1273C0,11.1273,6.18182,17.3091,6.18182,17.3091C6.18182,17.3091,0,23.4909,0,23.4909C0,23.4909,1.54545,25.0364,1.54545,25.0364C1.54545,25.0364,7.72727,18.8545,7.72727,18.8545C7.72727,18.8545,13.9091,25.0364,13.9091,25.0364C13.9091,25.0364,15.4545,23.4909,15.4545,23.4909C15.4545,23.4909,9.27273,17.3091,9.27273,17.3091C9.27273,17.3091,15.4545,11.1273,15.4545,11.1273C15.4545,11.1273,15.4545,11.1273,15.4545,11.1273ZM24.7273,0C24.7273,0,9.27273,0,9.27273,0C7.57273,0,6.18182,1.39091,6.18182,3.09091C6.18182,3.09091,6.18182,7.72727,6.18182,7.72727C6.18182,7.72727,9.27273,7.72727,9.27273,7.72727C9.27273,7.72727,9.27273,4.63636,9.27273,4.63636C9.27273,4.63636,24.7273,4.63636,24.7273,4.63636C24.7273,4.63636,24.7273,29.3636,24.7273,29.3636C24.7273,29.3636,9.27273,29.3636,9.27273,29.3636C9.27273,29.3636,9.27273,26.2727,9.27273,26.2727C9.27273,26.2727,6.18182,26.2727,6.18182,26.2727C6.18182,26.2727,6.18182,30.9091,6.18182,30.9091C6.18182,32.6091,7.57273,34,9.27273,34C9.27273,34,24.7273,34,24.7273,34C26.4273,34,27.8182,32.6091,27.8182,30.9091C27.8182,30.9091,27.8182,3.09091,27.8182,3.09091C27.8182,1.39091,26.4273,0,24.7273,0C24.7273,0,24.7273,0,24.7273,0Z" fill="#D98326" fill-opacity="1"/></g></svg>